# xmcd
#
# Track frame offsets:
#	150
#	20494
#	39097
#	58670
#	71035
#	91210
#	105797
#	129157
#	142225
#	157790
#	170651
#	181349
#	202518
#	218148
#	235686
#	257446
#	287484
#	300731
#
# Disc length: 4171 seconds
#
# Revision: 1
# Processed by: cddbd v1.5.2PL0 Copyright (c) Steve Scherf et al.
# Submitted via: audiograbber 1.83.01
#
DISCID=e3104912
DTITLE=Hooker Blues Cafe - Blues Live
DYEAR=1997
DGENRE=Blues
TTITLE0=Train - Rag Mama
TTITLE1=Mother In Law Blues - Tough Enough
TTITLE2=Sad Sad Day - Tough Enough
TTITLE3=This Train - Tough Enough
TTITLE4=The Things You Do - Herby's Akkustic Trio
TTITLE5=Stack O' Lee - Hannes and Christa Kasehs
TTITLE6=Can't Be Satisfied - Rausch/Bartolot/Vielgut
TTITLE7=Talking didn't Mean Our Love No Good - Peter Kern
TTITLE8=To A Waterfowl - Ruff 'n' Rich
TTITLE9=Wia soll i das nur sogn - Hary Wetterstein
TTITLE10=Dowbtfull Kind Of Blues - Another Blues Company Duo
TTITLE11=Jezebel - Kind of Blue Trio
TTITLE12=Boogie in A - Lone Wolf with E. Metzenbauer
TTITLE13=Mississippi Kid - Mellow Fellows
TTITLE14=C.C. Rider - Mellow Fellows
TTITLE15=Sky Is Cryin' - Rev. Frank TT and Dirty Alex
TTITLE16=I Need Lovin' - Rev. Frank TT
TTITLE17=Bring Me Little Water Silvie - Lilly and Rev. Frank TT
EXTD=Live Blues Session im Hooker Blues Cafe
EXTT0=
EXTT1=
EXTT2=
EXTT3=
EXTT4=
EXTT5=
EXTT6=
EXTT7=
EXTT8=
EXTT9=
EXTT10=
EXTT11=
EXTT12=
EXTT13=
EXTT14=
EXTT15=
EXTT16=
EXTT17=
PLAYORDER=
